<svg xmlns="http://www.w3.org/2000/svg" viewBox="0 0 1024 277" fill="currentColor" aria-labelledby="title">
    <title id="title">SecureVote Logo</title>
    <g transform="translate(0,277) scale(0.1,-0.1)">
        <path d="M1960 2072 l0 -658 -60 -59 -60 -60 -183 182 c-100 100 -194 186-208 192-67 24-162 -49-169 -129 -6 -67 -4 -70 248 -322 136 -137 256 -254 267 -260 39 -22 76 -11 121 33 l44 43 0 -482 c0 -265 -2 -482 -4 -482 -21 0 -259 119 -335 167 -169 108 -329 251 -452 406 -230 286 -349 611 -369 1005 l-8 157 3 -165 c6 -265 56 -465 176 -705 76 -153 168 -282 294 -413 118 -123 207 -198 336 -282 110 -72 304 -169 353 -177 76 -12 418 185 607 351 218 191 404 469 494 740 77 229 95 375 95 779 0 319 -5 370 -38 391 -6 3 -216 80 -469 170 -252 91 -502 181 -556 200 -54 20 -105 36 -112 36 -13 0 -15 -90 -15 -658z"/>
        <!-- Add more simplified paths here if desired, or use <use xlink:href> if breaking up -->
    </g>
</svg>
