<?xml version="1.0" standalone="no"?>
<!DOCTYPE svg PUBLIC "-//W3C//DTD SVG 20010904//EN"
 "http://www.w3.org/TR/2001/REC-SVG-20010904/DTD/svg10.dtd">
<svg version="1.0" xmlns="http://www.w3.org/2000/svg"
 width="1024.000000pt" height="1024.000000pt" viewBox="0 0 1024.000000 1024.000000"
 preserveAspectRatio="xMidYMid meet">

<g transform="translate(0.000000,1024.000000) scale(0.100000,-0.100000)"
fill="#000000" stroke="none">
<path d="M1960 5882 l0 -658 -60 -59 -60 -60 -183 182 c-100 100 -194 186
-208 192 -67 24 -162 -49 -169 -129 -6 -67 -4 -70 248 -322 136 -137 256 -254
267 -260 39 -22 76 -11 121 33 l44 43 0 -482 c0 -265 -2 -482 -4 -482 -21 0
-259 119 -335 167 -169 108 -329 251 -452 406 -230 286 -349 611 -369 1005
l-8 157 3 -165 c6 -265 56 -465 176 -705 76 -153 168 -282 294 -413 118 -123
207 -198 336 -282 110 -72 304 -169 353 -177 76 -12 418 185 607 351 218 191
404 469 494 740 77 229 95 375 95 779 0 319 -5 370 -38 391 -6 3 -216 80 -469
170 -252 91 -502 181 -556 200 -54 20 -105 36 -112 36 -13 0 -15 -90 -15 -658z
m700 -91 c43 -23 72 -70 72 -118 0 -34 -16 -52 -254 -292 -140 -141 -333 -336
-428 -433 -166 -170 -175 -178 -212 -178 -47 0 -63 14 -349 312 -193 200 -199
208 -199 248 0 81 56 140 135 140 39 1 45 -5 228 -192 l188 -192 353 353 c194
194 360 357 367 362 23 14 62 10 99 -10z"/>
<path d="M1372 6331 c-352 -127 -558 -206 -567 -217 -12 -15 -14 -66 -13 -259
l2 -240 6 241 c5 254 8 266 53 280 23 7 1008 357 1067 379 19 8 28 14 20 14
-8 0 -264 -89 -568 -198z"/>
<path d="M3758 5709 c-132 -19 -211 -92 -225 -207 -8 -70 12 -130 61 -178 43
-43 69 -54 251 -100 87 -22 125 -55 125 -109 0 -77 -66 -121 -170 -113 -70 5
-106 27 -133 81 l-19 37 -74 0 c-83 0 -83 -1 -59 -69 23 -67 62 -108 133 -143
62 -31 73 -33 172 -33 88 0 113 4 155 23 161 74 207 263 91 378 -42 43 -60 50
-259 105 -88 25 -117 51 -117 105 0 23 9 44 29 66 27 31 34 33 94 33 75 0 112
-20 137 -73 15 -31 15 -32 94 -32 l78 0 -6 28 c-35 146 -178 227 -358 201z"/>
<path d="M7177 5458 c46 -134 108 -316 139 -405 l56 -163 92 0 93 0 136 399
c75 219 137 401 137 405 0 3 -35 6 -78 6 l-79 0 -46 -142 c-25 -79 -72 -225
-104 -325 -31 -100 -60 -177 -64 -170 -3 7 -50 153 -104 325 l-99 312 -81 0
-81 0 83 -242z"/>
<path d="M8510 5565 l0 -75 -45 0 -46 0 3 -57 3 -58 42 -3 41 -3 4 -182 c4
-204 14 -243 69 -276 39 -24 112 -35 173 -26 l46 7 0 59 0 59 -50 0 c-37 0
-55 5 -70 20 -18 18 -20 33 -20 180 l0 160 70 0 70 0 0 60 0 60 -70 0 -70 0 0
75 0 75 -75 0 -75 0 0 -75z"/>
<path d="M4427 5500 c-93 -16 -165 -77 -204 -171 -27 -65 -24 -227 4 -290 50
-110 135 -163 263 -164 101 0 180 37 228 109 47 71 44 76 -38 76 -59 0 -71 -3
-80 -20 -25 -47 -122 -65 -180 -35 -33 17 -66 73 -71 120 l-4 30 209 3 209 2
-6 69 c-16 192 -149 301 -330 271z m121 -120 c34 -21 79 -101 67 -120 -4 -6
-61 -10 -136 -10 -140 0 -140 0 -118 57 31 83 116 116 187 73z"/>
<path d="M5057 5500 c-59 -10 -129 -50 -157 -90 -49 -69 -64 -120 -64 -220 0
-119 24 -180 94 -243 56 -50 110 -69 196 -69 111 1 201 62 229 156 8 27 15 53
15 58 0 4 -31 8 -70 8 -64 0 -70 -2 -70 -21 0 -11 -13 -34 -29 -50 -25 -25
-37 -29 -81 -29 -45 0 -56 4 -85 33 -41 41 -59 103 -52 183 8 112 53 167 133
167 51 0 92 -24 106 -64 10 -28 12 -29 80 -29 l71 0 -7 33 c-25 124 -161 202
-309 177z"/>
<path d="M6715 5499 c-94 -18 -159 -68 -195 -152 -31 -70 -38 -193 -16 -270
37 -126 138 -202 271 -201 88 0 137 16 187 62 33 30 78 97 78 117 0 3 -32 5
-70 5 -66 0 -72 -2 -98 -32 -24 -26 -37 -32 -83 -35 -86 -7 -136 35 -153 130
l-7 37 212 0 212 0 -7 63 c-10 88 -31 148 -71 194 -56 65 -167 101 -260 82z
m110 -113 c40 -17 64 -50 72 -100 l6 -36 -132 0 c-125 0 -131 1 -131 20 0 37
38 96 72 113 41 20 69 21 113 3z"/>
<path d="M8033 5500 c-133 -28 -210 -124 -220 -279 -14 -205 99 -341 283 -341
131 0 229 70 270 192 25 77 16 217 -19 284 -56 110 -186 170 -314 144z m137
-138 c43 -31 61 -82 61 -171 0 -56 -5 -92 -17 -117 -46 -97 -185 -99 -231 -4
-36 74 -27 217 18 274 37 47 117 55 169 18z"/>
<path d="M9067 5500 c-79 -14 -143 -64 -185 -145 -37 -72 -43 -215 -13 -296
46 -122 136 -182 271 -182 48 0 89 6 115 17 60 25 123 91 139 144 7 21 5 22
-63 22 -56 0 -72 -4 -83 -18 -25 -34 -62 -52 -108 -52 -79 0 -129 46 -145 133
l-7 37 212 0 213 0 -6 63 c-4 34 -11 79 -17 99 -36 124 -178 202 -323 178z
m138 -124 c27 -18 51 -58 56 -96 l4 -25 -135 0 c-151 0 -150 -1 -111 74 33 66
122 89 186 47z"/>
<path d="M6334 5481 c-22 -10 -50 -31 -62 -46 l-22 -28 0 42 0 41 -75 0 -75 0
0 -300 0 -300 74 0 75 0 3 200 3 200 33 32 c30 31 37 33 102 33 l70 0 0 73 0
72 -42 0 c-24 0 -61 -9 -84 -19z"/>
<path d="M5462 5268 c5 -229 11 -264 51 -322 27 -39 90 -66 157 -66 69 0 114
23 158 79 l32 43 0 -59 0 -58 67 3 68 3 0 300 0 299 -75 0 -75 0 0 -183 c0
-181 0 -182 -27 -229 -43 -73 -126 -88 -178 -33 -29 31 -42 139 -38 313 l3
132 -74 0 -73 0 4 -222z"/>
</g>
</svg>
